<svg width="52" height="52" viewBox="0 0 52 52" fill="none" xmlns="http://www.w3.org/2000/svg">
<g filter="url(#filter0_d_96_2530)">
<rect x="2" y="1" width="48" height="48" rx="10" fill="white"/>
<rect x="2.5" y="1.5" width="47" height="47" rx="9.5" stroke="#EAECF0"/>
<path d="M30.5 19V19.75M30.5 22.75V23.5M30.5 26.5V27.25M30.5 30.25V31M21.5 25.75H26.75M21.5 28H24.5M17.375 18.25C16.754 18.25 16.25 18.754 16.25 19.375V22.401C16.7067 22.664 17.0861 23.0427 17.3499 23.4989C17.6137 23.9552 17.7526 24.473 17.7526 25C17.7526 25.527 17.6137 26.0448 17.3499 26.5011C17.0861 26.9573 16.7067 27.336 16.25 27.599V30.625C16.25 31.246 16.754 31.75 17.375 31.75H34.625C35.246 31.75 35.75 31.246 35.75 30.625V27.599C35.2933 27.336 34.9139 26.9573 34.6501 26.5011C34.3863 26.0448 34.2474 25.527 34.2474 25C34.2474 24.473 34.3863 23.9552 34.6501 23.4989C34.9139 23.0427 35.2933 22.664 35.75 22.401V19.375C35.75 18.754 35.246 18.25 34.625 18.25H17.375Z" stroke="#0070FF" stroke-width="1.5" stroke-linecap="round" stroke-linejoin="round"/>
</g>
<defs>
<filter id="filter0_d_96_2530" x="0" y="0" width="52" height="52" filterUnits="userSpaceOnUse" color-interpolation-filters="sRGB">
<feFlood flood-opacity="0" result="BackgroundImageFix"/>
<feColorMatrix in="SourceAlpha" type="matrix" values="0 0 0 0 0 0 0 0 0 0 0 0 0 0 0 0 0 0 127 0" result="hardAlpha"/>
<feOffset dy="1"/>
<feGaussianBlur stdDeviation="1"/>
<feColorMatrix type="matrix" values="0 0 0 0 0.0627451 0 0 0 0 0.0941176 0 0 0 0 0.156863 0 0 0 0.05 0"/>
<feBlend mode="normal" in2="BackgroundImageFix" result="effect1_dropShadow_96_2530"/>
<feBlend mode="normal" in="SourceGraphic" in2="effect1_dropShadow_96_2530" result="shape"/>
</filter>
</defs>
</svg>
